<svg width="63" height="57" viewBox="0 0 63 57" fill="none" xmlns="http://www.w3.org/2000/svg">
<path d="M31.4393 23.4367C34.4381 23.4367 36.8838 25.8824 36.8838 28.9395C36.8838 31.851 34.4381 34.3257 31.4393 34.3257C28.4404 34.3257 25.9948 31.851 25.9948 28.9395C25.9948 25.8824 28.4404 23.4367 31.4393 23.4367ZM17.959 52.2315C19.7933 53.3378 23.8111 51.6492 28.4404 47.2819C26.9264 45.5641 25.4416 43.7008 24.044 41.7501C21.6978 41.5255 19.3653 41.1756 17.0564 40.7019C15.5716 46.9325 16.1248 51.2124 17.959 52.2315ZM20.0262 35.5194L19.1818 34.0346C18.8616 34.8789 18.5413 35.7232 18.3375 36.5385C19.1236 36.7132 19.9971 36.8587 20.8996 37.0043L20.0262 35.5194ZM39.0674 33.3067L41.4257 28.9395L39.0674 24.5722C38.1939 23.0291 37.2623 21.6607 36.4179 20.2923C34.8457 20.205 33.1862 20.205 31.4393 20.205C29.6924 20.205 28.0328 20.205 26.4606 20.2923C25.6163 21.6607 24.6846 23.0291 23.8111 24.5722L21.4528 28.9395L23.8111 33.3067C24.6846 34.8498 25.6163 36.2182 26.4606 37.5866C28.0328 37.674 29.6924 37.674 31.4393 37.674C33.1862 37.674 34.8457 37.674 36.4179 37.5866C37.2623 36.2182 38.1939 34.8498 39.0674 33.3067ZM31.4393 13.7414C30.8861 14.3819 30.3038 15.0516 29.7215 15.8377H33.157C32.5747 15.0516 31.9924 14.3819 31.4393 13.7414ZM31.4393 44.1375C31.9924 43.497 32.5747 42.8273 33.157 42.0412H29.7215C30.3038 42.8273 30.8861 43.497 31.4393 44.1375ZM44.8904 5.64745C43.0853 4.54108 39.0674 6.22975 34.4381 10.597C35.9521 12.3148 37.4369 14.1781 38.8345 16.1288C41.2219 16.3618 43.5802 16.7111 45.8221 17.177C47.3069 10.9464 46.7538 6.66647 44.8904 5.64745ZM42.8523 22.3595L43.6967 23.8443C44.0169 23 44.3372 22.1557 44.541 21.3404C43.7549 21.1657 42.8815 21.0202 41.9789 20.8746L42.8523 22.3595ZM47.074 1.83338C51.3539 4.27904 51.8198 10.7135 50.0146 18.2251C57.4098 20.4088 62.7379 24.019 62.7379 28.9395C62.7379 33.8599 57.4098 37.4702 50.0146 39.6538C51.8198 47.1655 51.3539 53.5999 47.074 56.0455C42.8232 58.4912 37.0293 55.6961 31.4393 50.3681C25.8492 55.6961 20.0553 58.4912 15.7754 56.0455C11.5246 53.5999 11.0588 47.1655 12.8639 39.6538C5.46867 37.4702 0.140625 33.8599 0.140625 28.9395C0.140625 24.019 5.46867 20.4088 12.8639 18.2251C11.0588 10.7135 11.5246 4.27904 15.7754 1.83338C20.0553 -0.612281 25.8492 2.18276 31.4393 7.51081C37.0293 2.18276 42.8232 -0.612281 47.074 1.83338ZM46.2297 28.9395C47.2196 31.1231 48.093 33.3067 48.8209 35.5194C54.9351 33.6852 58.3706 31.0648 58.3706 28.9395C58.3706 26.8141 54.9351 24.1937 48.8209 22.3595C48.093 24.5722 47.2196 26.7558 46.2297 28.9395ZM16.6488 28.9395C15.6589 26.7558 14.7855 24.5722 14.0576 22.3595C7.94345 24.1937 4.50788 26.8141 4.50788 28.9395C4.50788 31.0648 7.94345 33.6852 14.0576 35.5194C14.7855 33.3067 15.6589 31.1231 16.6488 28.9395ZM42.8523 35.5194L41.9789 37.0043C42.8815 36.8587 43.7549 36.7132 44.541 36.5385C44.3372 35.7232 44.0169 34.8789 43.6967 34.0346L42.8523 35.5194ZM34.4381 47.2819C39.0674 51.6492 43.0853 53.3378 44.8904 52.2315C46.7538 51.2124 47.3069 46.9325 45.8221 40.7019C43.5802 41.1678 41.2219 41.5171 38.8345 41.7501C37.4369 43.7008 35.9521 45.5641 34.4381 47.2819ZM20.0262 22.3595L20.8996 20.8746C19.9971 21.0202 19.1236 21.1657 18.3375 21.3404C18.5413 22.1557 18.8616 23 19.1818 23.8443L20.0262 22.3595ZM28.4404 10.597C23.8111 6.22975 19.7933 4.54108 17.959 5.64745C16.1248 6.66647 15.5716 10.9464 17.0564 17.177C19.3653 16.7033 21.6978 16.3534 24.044 16.1288C25.4416 14.1781 26.9264 12.3148 28.4404 10.597Z" fill="#9EA4AA"/>
</svg>
